<svg xmlns="http://www.w3.org/2000/svg" viewBox="0 0 71.54 87.56"><defs><style>.cls-1{fill:#87502b;}</style></defs><title>ARQUEO_1</title><g id="Capa_2" data-name="Capa 2"><g id="Capa_2-2" data-name="Capa 2"><path class="cls-1" d="M35.69.12C44.79.12,53.92.43,63,0c6.84-.3,8.68,2.59,8.52,9-.37,14.92-.06,29.85-.13,44.78-.1,18.29-14.91,32.9-34.07,33.71-18.88.8-36.25-13.66-37-31.76C-.33,39.6.23,23.39.09,7.19,0,1.86,2.68.05,7.6.1,17,.2,26.32.13,35.69.12ZM32.92,22.44c-5.35,0-9.56-.06-13.75,0-6.06.12-8.12,3.25-6.47,9,1.51,5.24,3,10.07.73,16s4.34,14.47,10.71,14.87a209.17,209.17,0,0,0,23.49,0c6.11-.3,10.51-6.16,10.21-10.89-2.17,1.68-5.28,6-8.12,5.79-3.08-.19-5.9-4.53-8.84-7.06-.18-.16-.48-.21-.64-.39-1.17-1.22-2.32-2.47-3.48-3.72,1.74-.6,3.63-1.95,5.19-1.65,2.48.49,4.75,2.08,7.13,3.21l7.47-5.44C42.24,33,32.67,40.16,24.23,52l-1.31-2.07,8.24-12.24L26.65,32ZM52.34,23c-8.89-2.71-12-1.14-17.33,8.62Q50.6,39.12,52.34,23Z"/><path class="cls-1" d="M18.73,41c-1.48-4.93-2.62-8-3.2-11.11a4.81,4.81,0,0,1,1.4-3.8c.67-.62,3.23-.55,3.43-.11,1.28,2.86,2.7,5.88,2.89,8.92C23.34,36.43,21,38.12,18.73,41Z"/></g></g></svg>