<svg xmlns="http://www.w3.org/2000/svg" viewBox="0 0 87.1 53.41"><defs><style>.cls-1{fill:#87502b;}</style></defs><title>cp</title><g id="Capa_2" data-name="Capa 2"><g id="Capa_2-2" data-name="Capa 2"><path class="cls-1" d="M44.93,9.05H62.14V53.41H54.69a34.73,34.73,0,0,1-.28-5.2c.75-7.69-.06-14.6-7.6-19.09-1.12-.66-1.72-2.93-1.79-4.5C44.79,19.8,44.93,15,44.93,9.05Z"/><path class="cls-1" d="M25.75,53.31H0V40.4H21.1c0-6.11-.32-11.52.19-16.85.16-1.59,2.53-4,4.09-4.2a18.07,18.07,0,0,1,9.3,1.46c.93.45,1,6-.07,6.69C24.58,33.61,24.84,43.23,25.75,53.31Z"/><path class="cls-1" d="M31,53.32c0-4.69-.42-9,.11-13.1.6-4.71,3.63-7.26,8.64-7.35s8.32,2.2,9,7c.62,4.31.13,8.78.13,13.49Z"/><path class="cls-1" d="M67.51,53.22V40.7h19V53.22Z"/><path class="cls-1" d="M0,34.21V23.32H14.1V34.21Z"/><path class="cls-1" d="M28.32,0C33.68,3.34,37.56,7,35,13.2H21.66C19,6.78,23.11,3.26,28.32,0Z"/><path class="cls-1" d="M67,34.14l10-8.38L87.1,34.14Z"/></g></g></svg>