<svg xmlns="http://www.w3.org/2000/svg" viewBox="0 0 66.7 67.64"><defs><style>.cls-1{fill:#87502b;}</style></defs><title>Fauna y flroa</title><g id="Capa_2" data-name="Capa 2"><g id="Capa_2-2" data-name="Capa 2"><path class="cls-1" d="M8.41,31.92l4.14-.75L0,12.47,4.24,3.26,6.61,6.6,9.52,0c1.61,10.11,4.82,18.12,11.71,24.37,1.19,1.08,1,3.67,1.41,5.33l16.12,4.85C33.23,41.46,29.23,41.8,22.52,36c-.64-.55-2.64-.29-3.48.32C12.85,40.76,10.75,40,8.41,31.92Z"/><path class="cls-1" d="M38.47,53.15H24.08L23.45,51c1.41-.87,3-2.67,4.19-2.44,7.21,1.41,11.48-3,16.36-7,6.09-5,13.35-7.46,21-8.27l.62,1.87a43.91,43.91,0,0,1-4.25,1.27c-4,.77-7.22,1.92-7.52,7.09-.12,1.92-2.49,3.87-4.13,5.51-4.19,4.19-7.16,8.72-6.43,15.07.12,1.08-1.42,2.35-2.2,3.54-.87-1-2.41-1.87-2.49-2.89C38.29,60.89,38.47,57,38.47,53.15Z"/><path class="cls-1" d="M56.42,43.69A42.66,42.66,0,0,1,60.92,41c4.45-1.85,5.87,1.08,5.78,4.48,0,1.92-1.89,3.8-2.93,5.7Z"/><path class="cls-1" d="M29.31,56h8.46c-1.82,2.93-3,6.73-4.57,6.95C28.86,63.49,28.62,60,29.31,56Z"/><path class="cls-1" d="M31.23,28.37,24,26.61c.7-1.34,1.7-3.9,2-3.82a37.39,37.39,0,0,1,6.24,2.59Z"/></g></g></svg>