<svg xmlns="http://www.w3.org/2000/svg" viewBox="0 0 50.98 49.14"><defs><style>.cls-1{fill:#87502b;}</style></defs><title>FLORA_1</title><g id="Capa_2" data-name="Capa 2"><g id="Capa_2-2" data-name="Capa 2"><path class="cls-1" d="M2.06,2.4C3.07,1.61,4,.28,5.12.11c4.22-.64,7.36,1.55,9.64,4.81s4.39,6.11,8.81,6.24c.82,0,1.72,1.29,2.38,2.14,2,2.57,3.72,5.3,5.76,7.8A17.34,17.34,0,0,0,45.56,28a7.28,7.28,0,0,1,3.65.59,4,4,0,0,1,1.77,3c0,.76-1.48,1.87-2.46,2.08-6,1.28-8.86.57-18.48-4.11.41,2.57,1.35,5,1.05,7.28A47.92,47.92,0,0,1,28.3,47.25c-.34.92-2.21,1.27-3.38,1.89-.66-1.36-2.22-3.09-1.84-4,3.58-8.78.18-15.86-5-22.62C16.24,20,15,17.75,15.41,14.18,16.15,7.9,9.44,2.58,3,3.57Z"/><path class="cls-1" d="M4.16,18.71l5.89-8.53C12.49,15.89,6.83,23.27.64,23.27c-2-7.8.76-13.47,6.7-13.72L2.94,18Z"/><path class="cls-1" d="M34,34.62l8.13,2.09c.59,7-2.41,9.18-9.31,6.5.22-1.41.45-2.9.66-4.39S33.79,36.09,34,34.62Z"/></g></g></svg>