<svg xmlns="http://www.w3.org/2000/svg" data-name="Layer 1" viewBox="0 0 128 160" x="0px" y="0px"><title>Miscellaneous 237_expandline</title><path d="M102.04788,80.834a2.00037,2.00037,0,0,0,.11712-2.8262c-.13672-.1494-.27632-.292-.42182-.4346a2,2,0,0,0-2.793,2.8633c.09282.0918.1836.1846.2725.2803A2.02006,2.02006,0,0,0,102.04788,80.834Z"/><path d="M103.19628,86.0469a1.99946,1.99946,0,0,0-2.4678,1.3808c-.0654.2325-.1416.461-.23048.6895a1.99941,1.99941,0,1,0,3.72468,1.4551,10.90239,10.90239,0,0,0,.3544-1.0557A2,2,0,0,0,103.19628,86.0469Z"/><path d="M87.84078,101.3867l-.6797.6182a2.003,2.003,0,0,0-.1396,2.8262,2.02348,2.02348,0,0,0,2.8252.1386l.6855-.622a2.0007,2.0007,0,0,0-2.6914-2.961Z"/><path d="M80.28708,108.0488l-.6963.5938a1.99985,1.99985,0,0,0,2.5889,3.0488l.706-.6035a1.9993,1.9993,0,1,0-2.5986-3.0391Z"/><path d="M95.11428,94.4727l-.6416.6377a1.99722,1.99722,0,0,0-.0264,2.8271,2.0191,2.0191,0,0,0,2.8281.0244l.667-.6611a1.99942,1.99942,0,0,0-2.8271-2.8281Z"/><path d="M72.54388,114.501l-.3828.3115a1.9975,1.9975,0,0,0-.2968,2.8115,2.02245,2.02245,0,0,0,2.8125.2998l.3886-.3174a2.00009,2.00009,0,0,0-2.5215-3.1054Z"/><path d="M27.42578,67.9424a1.99942,1.99942,0,0,0-2.8281-.0371c-.1456.1435-.2842.2871-.4219.4345a2.00078,2.00078,0,0,0,2.9433,2.711c.08792-.0967.1778-.1904.2715-.2822A1.9971,1.9971,0,0,0,27.42578,67.9424Z"/><path d="M38.71968,91.9229a2.00023,2.00023,0,1,0-2.6933,2.958l.6982.6298a1.99892,1.99892,0,1,0,2.6797-2.9668Z"/><path d="M31.36328,84.9414a2.00012,2.00012,0,1,0-2.8291,2.8281l.67482.67a2.00021,2.00021,0,0,0,2.80168-2.8555Z"/><path d="M25.63278,77.835A2,2,0,0,0,21.791,78.9492a11.02821,11.02821,0,0,0,.37208,1.0713,2.02335,2.02335,0,0,0,2.6045,1.1035,1.99946,1.99946,0,0,0,1.1025-2.6054A6.9104,6.9104,0,0,1,25.63278,77.835Z"/><path d="M54.90628,105.7363l-.7208-.5849a2.00014,2.00014,0,0,0-2.5156,3.1103l.7256.586a1.99906,1.99906,0,1,0,2.5108-3.1114Z"/><path d="M46.35638,98.6387a2.00062,2.00062,0,0,0-2.5947,3.0459l.711.6045a2.00006,2.00006,0,0,0,2.5918-3.0469Z"/><path d="M62.54388,111.7461l-.3857-.2949a1.99923,1.99923,0,0,0-2.4307,3.1748l.4024.3076a1.99922,1.99922,0,1,0,2.414-3.1875Z"/><path d="M122,73.7168V66.4717c2.91888-1.1299,4.999-4.6983,4.999-9.042,0-5.2861-3.07522-9.4268-6.999-9.4268-3.92582,0-7,4.1407-7,9.4268,0,4.3437,2.08008,7.9121,5,9.042v4.0322c-5.77932-3.873-13.21582-6.3213-19.93952-8.5293-4.1533-1.3672-8.0771-2.6562-11.5019-4.168a7.79142,7.79142,0,0,1-2.43458-1.622,4.87935,4.87935,0,0,1,2.44138-.7569c.835-.0947,3.6221-.1552,5.293-.1738a2.00063,2.00063,0,0,0-.0459-4.001c-.4443.0049-4.39548.0528-5.6982.2012a7.57082,7.57082,0,0,0-5.2627,2.375,3.50736,3.50736,0,0,0-.752,3.0938c.5938,2.4951,3.85942,4.1074,4.8447,4.5419,3.6026,1.5928,7.6162,2.9122,11.8672,4.3106,16.0283,5.2666,31.167,10.2412,26.2344,28.7607a67.97761,67.97761,0,0,1-10.5068,21.3037,2.00008,2.00008,0,1,0,3.25,2.3321,72.03079,72.03079,0,0,0,11.122-22.6035C129.60738,85.4414,127.04488,78.625,122,73.7168Zm-5-16.2871c0-3.1074,1.583-5.4268,3-5.4268,1.415,0,3,2.3194,3,5.4268a7.6618,7.6618,0,0,1-1,3.9199V58.4883a2,2,0,0,0-4,0v2.8613A7.65157,7.65157,0,0,1,117,57.4297Z"/><path d="M80.83108,68.8711c-1.6084-4.1914-5.7696-7.8389-11.41508-10.002-4.64652-1.7812-5.40142-3.3671-5.52242-3.8105-.0479-.1758-.1924-.708.60742-1.7119,2.67768-3.3555,12.35938-4.9688,12.35938-4.9688A111.18855,111.18855,0,0,1,96.002,47.0068a2.03874,2.03874,0,0,0,1.999-2.0039V34.3408a7.77316,7.77316,0,0,0,3.11718.6612,8.01178,8.01178,0,0,0,4.957-14.2012,10.26383,10.26383,0,0,0,.13382-1.6416,10.00943,10.00943,0,1,0-20.01662,0,10.261,10.261,0,0,0,.0918,1.3633,8.03039,8.03039,0,0,0-3.2813,6.4882,7.94442,7.94442,0,0,0,7.8809,7.9913,7.75535,7.75535,0,0,0,3.11822-.6622v8.6758a111.79267,111.79267,0,0,0-17.80282,1.416s-2.0771.3477-2.9463.5137V39.2207c2.92-1.1328,5-4.6973,5-9.043,0-5.2861-3.0752-9.4267-7-9.4267-3.9238,0-6.999,4.1406-6.999,9.4267,0,4.3457,2.08012,7.9102,5,9.043v6.6816A15.48106,15.48106,0,0,0,61.374,50.8535a5.76343,5.76343,0,0,0-1.33982,5.2588c.6953,2.5518,3.3711,4.7363,7.9512,6.4912,4.5195,1.7334,7.9257,4.6123,9.1113,7.7012a8.0529,8.0529,0,0,1-.5918,6.75,14.27867,14.27867,0,0,1-4.3184,4.832,8.41432,8.41432,0,0,1-1.8916.2188c-11.0176-3.0645-23.0127-7.0918-26.1894-16.0821-1.7442-4.9326,2.497-9.583,7.372-11.4531,3.0606-1.1728,6.42-3.8301,7.02252-7.126a6.19339,6.19339,0,0,0-2.332-5.9404c-2.85942-2.5498-5.70222-3.0068-8.71192-3.4912l-.95408-.1553a2,2,0,0,0-.65922,3.9453l.9775.1582c2.8301.4571,4.7002.7569,6.6875,2.5274a2.4957,2.4957,0,0,1,.8643,2.8955,6.61736,6.61736,0,0,1-2.3067,2.4062,9.34142,9.34142,0,0,1-2.0195,1.045c-6.6396,2.5459-12.2988,9.2011-9.71188,16.5214,3.82518,10.8223,16.958,15.2891,28.96578,18.6241a7.28845,7.28845,0,0,0,2.8877.1181,4.79636,4.79636,0,0,0,2.2217-.8798,18.28467,18.28467,0,0,0,5.6572-6.3458A12.04733,12.04733,0,0,0,80.83108,68.8711ZM90.88378,31.002A3.94242,3.94242,0,0,1,87.002,27.0107a3.99,3.99,0,0,1,2.34568-3.6611,2.00143,2.00143,0,0,0,1.1054-2.3965,6.37,6.37,0,0,1-.2607-1.7939,6.01016,6.01016,0,1,1,12.01662,0,6.29479,6.29479,0,0,1-.30272,1.9228,2.00267,2.00267,0,0,0,.9755,2.3799,3.98354,3.98354,0,0,1,2.11922,3.5488,3.94329,3.94329,0,0,1-3.88282,3.9913A3.86875,3.86875,0,0,1,97.75,28.9863a1.999,1.999,0,0,0-3.49612,0A3.87308,3.87308,0,0,1,90.88378,31.002Zm-22.6299-.8243c0-3.1045,1.584-5.4248,2.999-5.4248,1.416,0,3,2.3203,3,5.4248a7.65214,7.65214,0,0,1-1,3.9219V31.2354a1.9995,1.9995,0,0,0-3.999,0v2.8642A7.65313,7.65313,0,0,1,68.25388,30.1777Z"/><path d="M4.82708,81.9863c-4.2187-15.8427,8.8106-20.123,22.6055-24.6562,3.6973-1.2149,7.1885-2.3643,10.3281-3.751,2.669-1.1777,4.8028-4.5156,3.5957-7.4258-1.5781-3.8066-5.4482-3.9482-7.6005-4.0254h-4.7491V34.3408a7.76533,7.76533,0,0,0,3.11622.6612,8.01235,8.01235,0,0,0,4.95808-14.2012,10.27442,10.27442,0,0,0,.1328-1.6416,10.009,10.009,0,1,0-20.0157,0,10.26,10.26,0,0,0,.0909,1.3633,8.03007,8.03007,0,0,0-3.2813,6.4882,7.94443,7.94443,0,0,0,7.8809,7.9913,7.75473,7.75473,0,0,0,3.1181-.6622v9.6631c0,.0215.0059.0401.0059.0625,0,.0235-.0059.042-.0059.0625a2.00094,2.00094,0,0,0,2,2.001l6.6768-.001c2.8779.1045,3.5742.585,3.9775,1.5567.2364.5693-.6269,1.8418-1.5146,2.2363-2.96,1.3057-6.3623,2.4248-9.9629,3.6094a93.23736,93.23736,0,0,0-14.1758,5.5312V55.8789c2.9199-1.2197,5-5.0557,5-9.7324,0-5.6885-3.0752-10.1445-7-10.1445-3.92378,0-6.999,4.456-6.999,10.1445,0,4.6767,2.0801,8.5127,4.999,9.7324v5.6338c-6.1543,4.417-9.8721,10.8906-7.0459,21.5029,1.6387,6.1514,14.6563,28.5235,19.4199,35.1563a2.00008,2.00008,0,1,0,3.25-2.3321C18.748,109.04,6.22168,87.2188,4.82708,81.9863ZM21.88868,31.002a3.94246,3.94246,0,0,1-3.8819-3.9913,3.9917,3.9917,0,0,1,2.3457-3.6611A2.00459,2.00459,0,0,0,21.46,20.9531a6.2994,6.2994,0,0,1-.26182-1.7939,6.01015,6.01015,0,1,1,12.0166,0,6.2929,6.2929,0,0,1-.3037,1.9228,2.00272,2.00272,0,0,0,.9756,2.3799A4.00736,4.00736,0,0,1,32.123,31.002a3.87115,3.87115,0,0,1-3.36812-2.0157,1.999,1.999,0,0,0-3.4961,0A3.87189,3.87189,0,0,1,21.88868,31.002ZM7.00778,46.1465c0-3.458,1.6123-6.1436,3-6.1436s3,2.6856,3,6.1436a9.591,9.591,0,0,1-1,4.4062V47.4219a2,2,0,1,0-4,0v3.1308A9.60363,9.60363,0,0,1,7.00778,46.1465Z"/><text x="0" y="143" fill="#000000" font-size="5px" font-weight="bold" font-family="'Helvetica Neue', Helvetica, Arial-Unicode, Arial, Sans-serif">Created by priyanka</text><text x="0" y="148" fill="#000000" font-size="5px" font-weight="bold" font-family="'Helvetica Neue', Helvetica, Arial-Unicode, Arial, Sans-serif">from the Noun Project</text></svg>