<svg xmlns="http://www.w3.org/2000/svg" viewBox="0 0 61.03 38.95"><defs><style>.cls-1{fill:#87502b;}</style></defs><title>lago</title><g id="Capa_2" data-name="Capa 2"><g id="Capa_2-2" data-name="Capa 2"><path class="cls-1" d="M4.48,27.17C-.8,20.35-.94,15.55,3.84,11.63,9,20,14.49,22.69,20.79,19.44L14.37,17.6c6.24-4.92,12.8-4.24,23.77,2.4-.41-3.57-1-6.86-1.1-10.17-.1-4.06.12-8.25,5.18-9.56,4.67-1.21,7,1.83,9,5.29.61,1.06,1.09,2.19,1.86,3.75L43.59,7.84c1.09,5.55,1.56,10.34,3,14.78,1.22,3.62-.88,4.6-3,6.3-2.34,1.9-4.37,2.09-6.63.08-4.76-4.24-9.34-4-14.28,0a5.91,5.91,0,0,1-5.6.14C13.1,26.25,9.16,24.5,4.48,27.17Z"/><path class="cls-1" d="M0,38.23c-.55-4.76,7.58-10.31,11.74-7.53,5.95,4,10.6,4,16.34,0,1.45-1,5.55.38,7.56,1.85,3.43,2.51,5.89,2.57,9.24-.11,4.67-3.74,12.77-2.33,15.92,2.4.43.65.05,1.83.05,2.83-.71.1-1.35.41-1.63.21-5.6-4-10.83-4.37-16.54.3-1.31,1.07-5.47.15-7.28-1.22-3.83-2.89-6.8-3.27-10.54,0a7.23,7.23,0,0,1-10,0c-3.66-3.17-6.95-3.21-10.66-.26C3.09,37.51,1.48,37.7,0,38.23Z"/></g></g></svg>