<svg xmlns="http://www.w3.org/2000/svg" viewBox="0 0 75.16 55.98"><defs><style>.cls-1{fill:#87502b;}</style></defs><title>MIRADOR_1</title><g id="Capa_2" data-name="Capa 2"><g id="Capa_2-2" data-name="Capa 2"><path class="cls-1" d="M36.89,55.91c-9.67,0-19.35-.11-29,0C2.49,56,0,53.67,0,48.29c.06-10.35,0-20.7,0-31C0,11.8,2.83,9.56,8.06,9.66c4.5.09,9-.18,13.5.07,6,.32,11.08.21,14.34-6.67,1-2.16,7-2.2,10.77-2.79,5.79-.91,10.44.32,13.09,6.57.67,1.59,4.31,2.68,6.59,2.69,6.32,0,9,2.71,8.81,9-.25,9.67-.2,19.35,0,29,.11,6-2.53,8.52-8.55,8.38C56.7,55.74,46.79,55.91,36.89,55.91ZM60.52,33c-.05-7.36-7.15-14.29-14.45-14.11S32.33,25.57,32.16,32.76C32,40.14,38.77,47.12,46.21,47.2S60.57,40.27,60.52,33Zm-37-13.47.18-1.79H8.17v1.79Z"/><path class="cls-1" d="M8.67,7.7c1-3,1.33-6.62,2.36-6.83a28.8,28.8,0,0,1,11.14,0c1,.21,1.38,3.81,2.35,6.82H8.67Z"/></g></g></svg>