<svg xmlns="http://www.w3.org/2000/svg" viewBox="0 0 67.78 36.97"><defs><style>.cls-1{fill:#87502b;}</style></defs><title>MONTAÑA</title><g id="Capa_2" data-name="Capa 2"><g id="Capa_2-2" data-name="Capa 2"><path class="cls-1" d="M39.54,26.4c-1.13,2.51-1.93,4.7-3.07,6.69A28.74,28.74,0,0,1,33.34,37a31.27,31.27,0,0,1-2.67-3.68c-1.08-2-1.9-4.19-3.1-6.9L10.81,35.3,11.91,26,.61,30.59C-.7,26.23,0,23.79,3.78,21.23A302.71,302.71,0,0,0,28.63,2.38c3.57-3,5.77-3.3,9.55-.2C46.77,9.23,56,15.47,64.67,22.43c1.76,1.41,2.11,4.56,3.11,6.91l-1.4,1.15L55.24,26.06c.38,3.12.7,5.69,1.13,9.25Z"/></g></g></svg>