<svg xmlns="http://www.w3.org/2000/svg" viewBox="0 0 90.79 58.64"><defs><style>.cls-1{fill:#87502b;}</style></defs><title>RIO_1</title><g id="Capa_2" data-name="Capa 2"><g id="Capa_2-2" data-name="Capa 2"><path class="cls-1" d="M90.74,12.36C85,9.7,80.43,5.9,76,6.06c-4.55.17-8.77,5.29-13.5,6.13-3.45.61-7.89-1.6-11.2-3.66-4-2.47-6.83-3.33-11-.24-8.64,6.36-10.79,6.27-19.4-.15-3.78-2.82-6.8-2.63-10.53-.21-2.66,1.72-5.79,2.73-9.2,4.28C1.1,5,12.25-1.61,18.79.35a3.19,3.19,0,0,1,1.32.59c7.21,7,13.94,5.68,21.69.2C44.08-.48,50.21.86,53,3c5.39,4.07,9.31,4.4,14.72.11C74.53-2.33,85.47-.08,90.29,7,90.86,7.81,90.52,9.28,90.74,12.36Z"/><path class="cls-1" d="M90.6,42.75c-5.82-2.53-10.41-6.11-14.9-6-4.29.09-8.3,5.14-12.8,5.93-3.49.6-8-1.28-11.21-3.38-4.2-2.76-7.48-3.93-11.6-.21-6.19,5.58-12.63,5.66-18.86,0-3.66-3.34-7.08-3.26-11.07-.36-2.43,1.77-5.5,2.65-9,4.27C.9,40.53.2,38.84.76,37.91c3.87-6.38,16.57-9.2,22.51-4.51,5.16,4.09,9.31,4.81,14.51.16,5-4.51,10.94-4.23,15.89.19s8.89,3.86,13.92-.11c6.79-5.37,18-3.21,22.62,3.76C90.86,38.39,90.45,40.08,90.6,42.75Z"/><path class="cls-1" d="M90.74,27.31c-2.51-.75-4.2-.77-5.16-1.61-6.36-5.64-12.15-5.51-18.73.13-4.33,3.71-9.79,2.86-14.08-.86-4.84-4.18-9.06-4.64-14.09-.16-4.74,4.22-10.4,4.41-15.35.34s-9.61-5.09-15-.66C6.61,25.93,4,26.38.85,27.68c0-2.47-.62-4.46.1-5.51,4.59-6.56,16.39-8.69,22.82-3.7,4.85,3.76,8.76,4.25,13.52.14,5.33-4.61,11.22-4.6,16.56,0,4.75,4.09,8.66,3.64,13.53-.11,6.74-5.19,17.19-3.56,22.28,3C90.59,22.65,90.32,24.79,90.74,27.31Z"/><path class="cls-1" d="M90.79,57.8c-2.55-.71-4.26-.69-5.23-1.54-6.35-5.57-12.08-5.42-18.74.09-4.57,3.77-10.28,2.57-14.75-1.3S43.76,51,39.25,55C34.56,59.05,28.76,60,23.87,56c-5.64-4.62-10.49-5.23-16.21-.6C6.09,56.71,3.71,57,0,58.36c1-3.17.94-5.57,2.12-6.6,8.06-7,14.88-7.46,23.54-1.35,3.86,2.73,7.08,2.53,10.48-.43,6.32-5.49,12.73-5.49,19,0,4.17,3.68,7.61,2.44,11.62-.56A16.55,16.55,0,0,1,89.63,52C90.57,53.2,90.34,55.32,90.79,57.8Z"/></g></g></svg>