<svg xmlns="http://www.w3.org/2000/svg" viewBox="0 0 81.29 64.87"><defs><style>.cls-1{fill:#87502b;}</style></defs><title>tranque</title><g id="Capa_2" data-name="Capa 2"><g id="Capa_2-2" data-name="Capa 2"><path class="cls-1" d="M39.84.77c6.28-2,8.09,0,8.68,5.91C50.45,26,53.05,45.2,55.44,64.87H39.84Z"/><path class="cls-1" d="M36.73,27.14c-7.08,3.67-12.87,9.51-20.6,2.59-.91-.81-4.61,1.14-6.81,2.22C4.09,34.52,1.18,33.37.1,28.23l18.85-2C24.06,34.43,30.63,21,36.73,27.14Z"/><path class="cls-1" d="M35.85,46.71c-3,1.69-6.16,5.11-8.81,4.73-8.15-1.18-16-2.68-24.14.29C2.29,52,.61,49.27,0,48.59c3.94-1.2,7-2.53,10.25-3,3-.43,6.79-1,9.05.42,3.66,2.26,6.17,1.92,9.52-.1,1.92-1.15,4.53-1.12,6.83-1.62Z"/><path class="cls-1" d="M.34,9.56c3.49-.8,6.25-1.72,9.07-2,3.4-.36,7.54-1.41,10.12,0,3.75,2.11,6.14,1.53,9.41-.33,1.91-1.1,4.49-1,6.91-.38-5.94,4-11.32,10.6-19.23,3.58-1-.89-4.7.66-6.81,1.73C4.15,15.07,1.05,14,.34,9.56Z"/><path class="cls-1" d="M.49,19.43c3.44-1,6.59-2.25,9.86-2.7,3-.41,6.84-1,9,.41C23,19.57,25.51,19,28.84,17c1.9-1.16,4.52-1.14,7-.51-5.92,4-11.28,10.62-19.22,3.7-1-.88-4.64.63-6.7,1.72C4.46,24.76,1.06,23.61.49,19.43Z"/><path class="cls-1" d="M.46,38.94c3.48-1,6.57-2.22,9.78-2.74,2.84-.46,6.6-1.3,8.54,0,4,2.8,6.88,2.44,10.6-.16,1.58-1.11,4.18-.77,7.31-1.24-5.6,7.56-12.51,9.51-18.3,5.52-3.25-2.23-5.33-1.35-8.18.56C4.57,44.69.9,43.25.46,38.94Z"/><path class="cls-1" d="M.46,57.8c3.6-1,6.38-2.09,9.25-2.44,3.2-.4,7.09-1.24,9.58.12,3.64,2,6.15,2.16,9.55-.06,1.85-1.21,4.46-1.27,6.94-.7C30,59,24.63,65.46,16.63,58.59c-1-.89-4.64.57-6.69,1.64C4.49,63.07,1.06,61.92.46,57.8Z"/><path class="cls-1" d="M57.52,57.67C61,56.7,64.23,56.3,67,55c6.12-3,12.38-.86,14.3,5.28-.34.23-.84.74-1,.65C75,58.13,70.18,56.37,64.5,61,61.46,63.52,59,61.57,57.52,57.67Z"/></g></g></svg>